Coordinates
version=1
nRows=22
nColumns=24
inDegrees=yes

Units are S.I. units (second, meters, Newtons, ...)
Angles are in degrees.

endheader
time	pelvis_tilt	pelvis_list	pelvis_rotation	pelvis_tx	pelvis_ty	pelvis_tz	hip_flexion_r	hip_adduction_r	hip_rotation_r	knee_angle_r	ankle_angle_r	subtalar_angle_r	mtp_angle_r	hip_flexion_l	hip_adduction_l	hip_rotation_l	knee_angle_l	ankle_angle_l	subtalar_angle_l	mtp_angle_l	lumbar_extension	lumbar_bending	lumbar_rotation
      3.73500000	    -20.36822817	     10.07650035	     -4.88046925	     -2.32355078	     -0.04365128	     -0.28672367	     17.29795255	     -8.74092537	      0.95072666	    -56.53768123	    -40.53911900	    -13.72058617	     10.18953033	     43.76785614	     14.32069380	      6.56500081	    -28.50704309	     17.12797468	      5.64878018	    -69.63626745	     13.47535015	     -8.70530958	      8.79555345
      3.74000000	    -20.41573663	     10.15296593	     -4.93977221	     -2.31571347	     -0.04237608	     -0.28672049	     18.65149589	     -8.53079062	      1.27110555	    -58.23450179	    -38.60082639	    -15.61668456	      5.88735509	     42.98456011	     14.33243412	      6.32284795	    -28.07070639	     17.81061635	      6.18519902	    -69.68354771	     13.56400125	     -8.70764196	      8.60189121
      3.74500000	    -20.43794042	     10.21588429	     -4.99162621	     -2.30789540	     -0.04096605	     -0.28666304	     19.95947659	     -8.28387985	      1.59457874	    -59.79935336	    -36.56637045	    -17.27189701	      1.26471087	     42.13154822	     14.33958218	      6.10815460	    -27.55382212	     18.42989058	      6.67991786	    -69.81091859	     13.62159292	     -8.70802750	      8.41651604
      3.75000000	    -20.45314190	     10.27045559	     -5.04045861	     -2.30007747	     -0.03948517	     -0.28653360	     21.23712615	     -8.00186334	      1.92588201	    -61.23271280	    -34.45390669	    -18.72129189	     -3.60212993	     41.24876724	     14.34456232	      5.93627647	    -27.00222815	     18.98150456	      7.13825928	    -69.95880417	     13.68060678	     -8.71049347	      8.22857756
      3.75500000	    -20.46436905	     10.30991622	     -5.07744657	     -2.29229778	     -0.03793790	     -0.28635279	     22.49055797	     -7.68997357	      2.23899381	    -62.54147666	    -32.27670133	    -19.96075834	     -8.68923703	     40.32630585	     14.34640338	      5.82303638	    -26.38386179	     19.45998495	      7.54534421	    -70.10132980	     13.72793296	     -8.71000057	      8.02985465
      3.76000000	    -20.46500925	     10.33001330	     -5.09596394	     -2.28452386	     -0.03632300	     -0.28613634	     23.70384078	     -7.35513942	      2.51529970	    -63.72013671	    -30.02456378	    -20.98656624	    -14.08730548	     39.35997833	     14.34759402	      5.77508118	    -25.71231607	     19.86728863	      7.90002675	    -70.22787362	     13.76097669	     -8.70367423	      7.81976584
      3.76500000	    -20.45570785	     10.34810595	     -5.13094440	     -2.27676014	     -0.03466977	     -0.28580847	     24.89156635	     -6.99879517	      2.80288964	    -64.78825972	    -27.62157882	    -21.73378634	    -19.80387984	     38.36778490	     14.32522653	      5.68789036	    -25.00532947	     20.23287118	      8.27821134	    -70.33046262	     13.78906862	     -8.70447561	      7.63723495
      3.77000000	    -20.44088991	     10.37888485	     -5.11058560	     -2.26894660	     -0.03293124	     -0.28580114	     25.96605879	     -6.71766517	      3.17426075	    -65.51432746	    -26.66208950	    -22.86360901	    -20.11948451	     37.28714206	     14.41720202	      5.91157705	    -24.14841751	     20.36936898	      8.29301925	    -70.32638295	     13.80970684	     -8.70422777	      7.42102228
      3.77500000	    -20.70149081	      9.24638098	     -5.08795550	     -2.26179979	     -0.03027035	     -0.28429900	     27.14572069	     -4.82474626	      2.91315047	    -64.62889313	     -7.48260816	    -24.31299606	   -131.47704605	     36.58175566	     13.12480793	      5.94971974	    -23.79726757	     21.34429625	      9.58338863	    -72.03430850	     13.90324128	     -7.68306665	      6.93575887
      3.78000000	    -20.57594096	      9.20059228	     -5.08397173	     -2.25399131	     -0.02831838	     -0.28411397	     28.03104625	     -4.47268905	      3.23872327	    -65.12180358	     -6.21832147	    -24.84791678	   -131.58944372	     35.33589775	     13.11337724	      6.13875699	    -22.86264460	     21.36391861	      9.71262298	    -71.52417891	     13.79742467	     -7.63513484	      6.73603663
      3.78500000	    -20.59250260	      9.03925282	     -4.97214798	     -2.24633599	     -0.02657354	     -0.28402758	     29.03005084	     -4.04036486	      3.41893388	    -65.53604999	     -4.88204251	    -25.19455439	   -131.68915335	     34.28290242	     13.01472644	      6.38271503	    -22.02994791	     21.49019044	      9.97339561	    -71.41864883	     13.80149441	     -7.48572922	      6.37808132
      3.79000000	    -20.54966795	      8.92731418	     -4.86117273	     -2.23863412	     -0.02473650	     -0.28396485	     29.94630712	     -3.70753796	      3.56977921	    -65.84349166	     -3.43801402	    -25.39755473	   -132.04879041	     33.10280018	     12.98214939	      6.78861856	    -21.06163286	     21.45623668	     10.04450906	    -71.29554824	     13.75540193	     -7.39815096	      6.05817441
      3.79500000	    -20.50040604	      8.71215823	     -4.74379575	     -2.23091822	     -0.02282050	     -0.28393602	     30.78728767	     -3.29044500	      3.67007001	    -65.97842770	     -1.93532529	    -25.45570641	   -132.82183442	     31.88972733	     12.85098907	      7.28147616	    -20.07316003	     21.37699346	     10.07417276	    -71.16050747	     13.69391942	     -7.20066830	      5.72879476
      3.80000000	    -20.46290897	      8.44860024	     -4.58727691	     -2.22328187	     -0.02095244	     -0.28390901	     31.60509714	     -2.85966406	      3.70121622	    -66.00673297	     -0.33274820	    -25.36394363	   -133.80329709	     30.71983319	     12.66589778	      7.75738069	    -19.14111326	     21.31865865	     10.21571977	    -71.07459939	     13.62633323	     -6.97326065	      5.33144221
      3.80500000	    -20.43714329	      8.13028306	     -4.40360241	     -2.21571197	     -0.01910973	     -0.28388437	     32.39768336	     -2.39800487	      3.68282491	    -65.91877500	      1.30728033	    -25.14126662	   -134.89024052	     29.58471736	     12.41988827	      8.25446691	    -18.25198214	     21.26825296	     10.41586655	    -71.02407469	     13.55606142	     -6.70197035	      4.86165669
      3.81000000	    -20.41867435	      7.77958938	     -4.19096730	     -2.20815546	     -0.01728968	     -0.28389426	     33.15867947	     -1.94748896	      3.59451972	    -65.72461746	      3.01549998	    -24.75343375	   -135.79077879	     28.47842987	     12.13898566	      8.74310208	    -17.39611250	     21.18847819	     10.64711198	    -71.00556396	     13.49079952	     -6.40608045	      4.40543870
      3.81500000	    -20.40536922	      7.41546677	     -3.94886874	     -2.20064882	     -0.01553590	     -0.28391172	     33.89874131	     -1.52033835	      3.45058528	    -65.44745634	      4.76768960	    -24.21962260	   -136.39699321	     27.41791928	     11.83948472	      9.21878698	    -16.60558891	     21.12356779	     10.94675832	    -70.99950807	     13.42410319	     -6.11183104	      3.95676034
      3.82000000	    -20.39012866	      7.02786133	     -3.69251564	     -2.19315984	     -0.01377610	     -0.28398153	     34.59783096	     -1.09451019	      3.30123577	    -65.04748775	      6.46692980	    -23.56998594	   -137.06928033	     26.36656503	     11.51948420	      9.74535004	    -15.82342987	     20.98277989	     11.16053944	    -70.98825849	     13.35235982	     -5.79093647	      3.44291917
      3.82500000	    -20.39364873	      6.63357119	     -3.40840672	     -2.18571843	     -0.01209015	     -0.28407427	     35.28921222	     -0.69268830	      3.12454366	    -64.54805373	      8.10428724	    -22.85351500	   -137.68585984	     25.38346944	     11.18910680	     10.22655439	    -15.11225352	     20.83198398	     11.41856959	    -70.95965616	     13.29601972	     -5.47159149	      2.90704832
      3.83000000	    -20.44657738	      6.24082533	     -3.08300093	     -2.17834137	     -0.01052522	     -0.28418569	     36.01426405	     -0.32934407	      2.90625610	    -63.97242553	      9.64602221	    -22.05063538	   -137.98775927	     24.53132443	     10.85183143	     10.53941681	    -14.51635808	     20.70085556	     11.85539507	    -70.95795947	     13.28701223	     -5.16643126	      2.38005394
      3.83500000	    -20.46467251	      5.87830727	     -2.74730865	     -2.17097177	     -0.00899613	     -0.28432503	     36.67538761	     -0.02075581	      2.70337676	    -63.30341661	     11.09101061	    -21.24383500	   -138.30544085	     23.64743385	     10.55508306	     10.94589393	    -13.91552248	     20.51179265	     12.14851579	    -70.95108905	     13.24192573	     -4.89694667	      1.83251371
      3.84000000	    -20.44100477	      5.52502510	     -2.41323363	     -2.16355350	     -0.00746701	     -0.28455083	     37.25036770	      0.24870484	      2.50099767	    -62.50611585	     12.38499531	    -20.50448331	   -138.79553264	     22.68149928	     10.28778784	     11.58559488	    -13.24481107	     20.20938577	     12.09972604	    -70.87237000	     13.15942809	     -4.62510309	      1.26949035
